<svg width="240" height="250" viewBox="0 0 240 250" fill="none" xmlns="http://www.w3.org/2000/svg">
<path d="M10.5832 240.25C34.2704 255.354 48.234 233.208 63.78 225.12C83.7622 214.723 104.78 226.422 119.642 240.015C135.126 254.179 177.191 255.477 168.658 229.367C151.591 177.147 221.187 196.374 235.413 159.872C251.7 118.082 210.058 89.0146 218.932 56.0464C225.375 32.1099 257.77 4.15048 220.035 0.287201C186.331 -3.16348 84.7778 24.8448 92.5357 64.669C96.2399 83.6846 129.943 95.8247 121.298 116.602C105.478 154.622 42.9805 146.91 13.3229 176.399C-2.8545 192.486 -4.93167 230.357 10.5832 240.25V240.25Z" fill="url(#paint0_linear_4_45)"/>
<path d="M189.461 52.62V186.226C189.461 188.926 187.273 191.109 184.578 191.109H54.8706C52.1802 191.109 49.9878 188.926 49.9878 186.226V52.62C49.9878 49.9247 52.1802 47.7371 54.8706 47.7371H184.578C187.274 47.7371 189.461 49.9247 189.461 52.62V52.62Z" fill="white"/>
<path d="M157.596 100.551C156.694 100.551 155.809 100.619 154.944 100.749V90.5015C154.944 87.8404 152.811 85.6772 150.164 85.6235V60.7794C150.164 56.1113 149.114 51.6874 147.234 47.7371H54.8706C52.1802 47.7371 49.9878 49.9247 49.9878 52.62V94.5104H59.5533L64.9683 103.192C66.1207 105.043 68.8111 105.043 69.9635 103.192L75.3786 94.5104H81.6237C82.6052 94.5104 83.5666 94.4264 84.5046 94.2726V101.278C84.5046 103.939 86.6384 106.098 89.2849 106.151V129.667C89.2849 136.406 94.7537 141.874 101.492 141.874H109.632V169.497H103.65C102.506 169.497 101.552 170.289 101.287 171.353H98.8841C93.5178 171.353 88.4738 173.442 84.6799 177.232L70.8029 191.109H77.7169L88.1369 180.689C91.008 177.817 94.8215 176.235 98.8841 176.235H101.208V176.24C101.208 177.588 102.302 178.682 103.65 178.682H109.631C109.631 181.377 111.819 183.565 114.514 183.565H124.934C127.629 183.565 129.817 181.377 129.817 178.682V141.874H137.957C138.835 141.874 139.692 141.779 140.519 141.603C142.501 149.183 149.392 154.775 157.595 154.775H163.84L169.256 163.462C170.408 165.307 173.098 165.307 174.246 163.462L179.661 154.775H189.461V100.551H157.596Z" fill="#D8D8FF"/>
<path d="M189.457 52.62V69.9638H49.9878V52.62C49.9878 49.9246 52.1753 47.7371 54.8706 47.7371H184.574C187.27 47.7371 189.457 49.9246 189.457 52.62V52.62Z" fill="#6C6CFF"/>
<path d="M139.938 106.489V125.406C139.938 135.155 147.841 143.057 157.591 143.057H163.836L169.25 151.742C170.403 153.59 173.092 153.59 174.243 151.742L179.659 143.057H205.247C214.994 143.057 222.9 135.155 222.9 125.406V106.489C222.9 96.7386 214.994 88.8367 205.247 88.8367H157.591C147.841 88.8367 139.938 96.7386 139.938 106.489V106.489Z" fill="#624FFF"/>
<path d="M194.458 107.62H203.532C204.88 107.62 205.973 106.527 205.973 105.179C205.973 103.831 204.88 102.737 203.532 102.737H194.458C193.11 102.737 192.017 103.831 192.017 105.179C192.017 106.527 193.11 107.62 194.458 107.62V107.62Z" fill="#FFC498"/>
<path d="M162.231 117.573H203.532C204.88 117.573 205.973 116.48 205.973 115.131C205.973 113.783 204.88 112.69 203.532 112.69H162.231C160.883 112.69 159.79 113.783 159.79 115.131C159.79 116.48 160.883 117.573 162.231 117.573V117.573Z" fill="white"/>
<path d="M162.231 127.525H203.532C204.88 127.525 205.973 126.432 205.973 125.084C205.973 123.736 204.88 122.643 203.532 122.643H162.231C160.883 122.643 159.79 123.736 159.79 125.084C159.79 126.432 160.883 127.525 162.231 127.525V127.525Z" fill="white"/>
<path d="M113.144 165.352H126.328V204.141H113.144V165.352Z" fill="#FFAA66"/>
<path d="M126.328 165.352V183.36C125.888 183.492 125.424 183.56 124.946 183.56H114.526C114.047 183.56 113.583 183.492 113.144 183.36V165.352H126.328Z" fill="#FF8A00"/>
<path d="M124.938 171.847H114.517C111.82 171.847 109.634 169.661 109.634 166.964V127.403H129.821V166.964C129.821 169.66 127.634 171.847 124.938 171.847Z" fill="white"/>
<path d="M109.634 127.403H129.821V140.203H109.634V127.403Z" fill="#FFAA66"/>
<path d="M150.173 49.063V117.95C150.173 124.689 144.705 130.157 137.966 130.157H101.501C94.7632 130.157 89.2944 124.689 89.2944 117.95V49.063C89.2944 32.2514 102.922 18.6234 119.734 18.6234C128.142 18.6234 135.75 22.0316 141.257 27.5394C146.765 33.0473 150.173 40.6548 150.173 49.063V49.063Z" fill="#8282FF"/>
<path d="M89.2944 85.6209H150.173V106.163H89.2944V85.6209Z" fill="#6C6CFF"/>
<path d="M150.169 84.0015V49.0605C150.169 32.2504 136.541 18.6234 119.732 18.6234C102.921 18.6234 89.2944 32.2508 89.2944 49.0605V84.0015H150.169Z" fill="#D8D8FF"/>
<path d="M150.074 94.4428H89.4013C86.7045 94.4428 84.5184 92.2567 84.5184 89.56V78.785C84.5184 76.0882 86.7045 73.9021 89.4013 73.9021H150.074C152.771 73.9021 154.957 76.0882 154.957 78.785V89.56C154.957 92.2567 152.771 94.4428 150.074 94.4428Z" fill="#9393FF"/>
<path d="M140.698 80.6873L142.622 73.9021H96.8475L98.7709 80.6873C99.3666 82.7884 101.285 84.2386 103.469 84.2386H136.001C138.185 84.2391 140.103 82.7889 140.698 80.6873V80.6873Z" fill="#B2B2FF"/>
<path d="M155.801 216.996H83.6639L85.9721 208.815C87.4149 203.7 92.081 200.169 97.3945 200.169H142.07C147.383 200.169 152.05 203.7 153.492 208.815L155.801 216.996Z" fill="#9393FF"/>
<path d="M159.639 229.177H79.834C78.2158 229.177 76.9043 227.866 76.9043 226.248V219.357C76.9043 217.738 78.2158 216.427 79.834 216.427H159.639C161.258 216.427 162.569 217.738 162.569 219.357V226.248C162.569 227.866 161.258 229.177 159.639 229.177Z" fill="#D8D8FF"/>
<path d="M112.67 50.1827H103.167C101.017 50.1827 99.2737 48.4395 99.2737 46.2896C99.2737 44.1397 101.017 42.3965 103.167 42.3965H112.67C114.82 42.3965 116.563 44.1397 116.563 46.2896C116.563 48.4395 114.82 50.1827 112.67 50.1827Z" fill="black"/>
<path d="M136.306 50.1827H126.803C124.653 50.1827 122.91 48.4395 122.91 46.2896C122.91 44.1397 124.653 42.3965 126.803 42.3965H136.306C138.456 42.3965 140.199 44.1397 140.199 46.2896C140.199 48.4395 138.456 50.1827 136.306 50.1827Z" fill="black"/>
<path d="M112.67 64.6099H103.167C101.017 64.6099 99.2737 62.8667 99.2737 60.7168C99.2737 58.5669 101.017 56.8237 103.167 56.8237H112.67C114.82 56.8237 116.563 58.5669 116.563 60.7168C116.563 62.8672 114.82 64.6099 112.67 64.6099Z" fill="black"/>
<path d="M136.306 64.6099H126.803C124.653 64.6099 122.91 62.8667 122.91 60.7168C122.91 58.5669 124.653 56.8237 126.803 56.8237H136.306C138.456 56.8237 140.199 58.5669 140.199 60.7168C140.199 62.8672 138.456 64.6099 136.306 64.6099Z" fill="black"/>
<path d="M112.67 115.94H103.167C101.017 115.94 99.2737 114.197 99.2737 112.047C99.2737 109.897 101.017 108.154 103.167 108.154H112.67C114.82 108.154 116.563 109.897 116.563 112.047C116.563 114.197 114.82 115.94 112.67 115.94Z" fill="#A04DAB"/>
<path d="M136.306 115.94H126.803C124.653 115.94 122.91 114.197 122.91 112.047C122.91 109.897 124.653 108.154 126.803 108.154H136.306C138.456 108.154 140.199 109.897 140.199 112.047C140.199 114.197 138.456 115.94 136.306 115.94Z" fill="#A04DAB"/>
<path d="M44.6367 204.148C39.2718 204.148 34.2278 202.059 30.4343 198.266C26.6408 194.473 24.5514 189.429 24.5514 184.065C24.5514 178.7 26.6403 173.657 30.4338 169.863L32.595 167.702C35.4666 164.831 37.0477 161.014 37.0477 156.953C37.0477 152.893 35.4661 149.076 32.595 146.204L29.321 142.931C28.3674 141.977 28.3674 140.431 29.321 139.478C30.2746 138.525 31.8201 138.525 32.7737 139.478L36.0477 142.752C39.8412 146.546 41.9306 151.589 41.9306 156.953C41.9306 162.318 39.8412 167.361 36.0477 171.155L33.8865 173.316C27.9592 179.243 27.9592 188.887 33.8865 194.813C36.7576 197.684 40.5756 199.265 44.6362 199.265C48.6968 199.265 52.5142 197.684 55.3859 194.813L84.6876 165.513C88.4811 161.72 93.5251 159.631 98.89 159.631H101.217C102.565 159.631 103.658 160.725 103.658 162.073C103.658 163.421 102.565 164.514 101.217 164.514H98.89C94.8293 164.514 91.0114 166.095 88.1403 168.966L58.8386 198.266C55.045 202.059 50.0015 204.148 44.6367 204.148V204.148Z" fill="#A04DAB"/>
<path d="M119.736 164.486C121.084 164.486 122.177 163.393 122.177 162.045C122.177 160.696 121.084 159.603 119.736 159.603C118.387 159.603 117.294 160.696 117.294 162.045C117.294 163.393 118.387 164.486 119.736 164.486Z" fill="#6526EE"/>
<path d="M119.736 156.765C121.084 156.765 122.177 155.672 122.177 154.324C122.177 152.975 121.084 151.882 119.736 151.882C118.387 151.882 117.294 152.975 117.294 154.324C117.294 155.672 118.387 156.765 119.736 156.765Z" fill="#6C6CFF"/>
<path d="M109.632 166.959H103.653C102.305 166.959 101.212 165.865 101.212 164.517V160.217C101.212 158.869 102.305 157.776 103.653 157.776H109.632V166.959Z" fill="#8282FF"/>
<path d="M154.871 171.906H142.868C141.52 171.906 140.427 170.812 140.427 169.464C140.427 168.116 141.52 167.023 142.868 167.023H154.871C156.22 167.023 157.313 168.116 157.313 169.464C157.313 170.812 156.22 171.906 154.871 171.906Z" fill="#624FFF"/>
<path d="M175.379 181.858H142.868C141.52 181.858 140.427 180.765 140.427 179.417C140.427 178.069 141.52 176.975 142.868 176.975H175.379C176.728 176.975 177.821 178.069 177.821 179.417C177.821 180.765 176.728 181.858 175.379 181.858Z" fill="#6C6CFF"/>
<path d="M175.369 171.906C176.718 171.906 177.811 170.812 177.811 169.464C177.811 168.116 176.718 167.023 175.369 167.023C174.021 167.023 172.928 168.116 172.928 169.464C172.928 170.812 174.021 171.906 175.369 171.906Z" fill="#9393FF"/>
<path d="M167.679 171.906C169.027 171.906 170.12 170.812 170.12 169.464C170.12 168.116 169.027 167.023 167.679 167.023C166.33 167.023 165.237 168.116 165.237 169.464C165.237 170.812 166.33 171.906 167.679 171.906Z" fill="#9393FF"/>
<path d="M99.2749 46.2215V65.1398C99.2749 74.89 91.3724 82.793 81.6218 82.793H75.3766L69.9629 91.4782C68.8096 93.3259 66.1206 93.3259 64.9701 91.4782L59.5536 82.793H33.9648C24.2175 82.793 16.3116 74.89 16.3116 65.1398V46.2215C16.3116 36.4708 24.2175 28.5683 33.9648 28.5683H81.6218C91.3719 28.5683 99.2749 36.4708 99.2749 46.2215V46.2215Z" fill="#624FFF"/>
<path d="M44.7488 47.3518H35.6751C34.3269 47.3518 33.2336 46.2586 33.2336 44.9104C33.2336 43.5623 34.3269 42.469 35.6751 42.469H44.7488C46.0969 42.469 47.1902 43.5623 47.1902 44.9104C47.1902 46.2586 46.0969 47.3518 44.7488 47.3518Z" fill="#FFC498"/>
<path d="M79.9053 57.3044H35.6751C34.3269 57.3044 33.2336 56.2111 33.2336 54.863C33.2336 53.5148 34.3269 52.4216 35.6751 52.4216H79.9053C81.2534 52.4216 82.3467 53.5148 82.3467 54.863C82.3467 56.2111 81.2534 57.3044 79.9053 57.3044Z" fill="white"/>
<path d="M79.9053 67.2569H35.6751C34.3269 67.2569 33.2336 66.1637 33.2336 64.8155C33.2336 63.4674 34.3269 62.3741 35.6751 62.3741H79.9053C81.2534 62.3741 82.3467 63.4674 82.3467 64.8155C82.3467 66.1637 81.2534 67.2569 79.9053 67.2569Z" fill="white"/>
<path d="M164.591 28.699C163.243 28.699 162.15 27.6057 162.15 26.2576C162.15 24.5525 160.763 23.1653 159.058 23.1653C157.709 23.1653 156.616 22.072 156.616 20.7238C156.616 19.3757 157.709 18.2824 159.058 18.2824C160.763 18.2824 162.15 16.8952 162.15 15.1901C162.15 13.842 163.243 12.7487 164.591 12.7487C165.939 12.7487 167.033 13.842 167.033 15.1901C167.033 16.8952 168.42 18.2824 170.125 18.2824C171.473 18.2824 172.566 19.3757 172.566 20.7238C172.566 22.072 171.473 23.1653 170.125 23.1653C168.42 23.1653 167.033 24.5525 167.033 26.2576C167.033 27.6062 165.94 28.699 164.591 28.699Z" fill="#FF9C33"/>
<path d="M201.243 208.15C199.895 208.15 198.802 207.057 198.802 205.709C198.802 204.003 197.414 202.616 195.709 202.616C194.361 202.616 193.268 201.523 193.268 200.175C193.268 198.827 194.361 197.733 195.709 197.733C197.414 197.733 198.802 196.346 198.802 194.641C198.802 193.293 199.895 192.2 201.243 192.2C202.591 192.2 203.684 193.293 203.684 194.641C203.684 196.346 205.072 197.733 206.777 197.733C208.125 197.733 209.218 198.827 209.218 200.175C209.218 201.523 208.125 202.616 206.777 202.616C205.072 202.616 203.684 204.003 203.684 205.709C203.684 207.057 202.591 208.15 201.243 208.15Z" fill="#624FFF"/>
<path d="M178.108 221.245C177.604 221.245 177.1 221.09 176.672 220.779C175.817 220.158 175.458 219.056 175.786 218.05L176.506 215.834L174.621 214.465C173.765 213.844 173.407 212.742 173.734 211.736C174.061 210.73 174.998 210.049 176.056 210.049H178.386L179.106 207.833C179.433 206.827 180.37 206.146 181.428 206.146C182.486 206.146 183.423 206.827 183.75 207.833L184.47 210.049H186.8C187.857 210.049 188.795 210.73 189.122 211.736C189.449 212.742 189.091 213.844 188.235 214.466L186.35 215.834L187.071 218.05C187.397 219.056 187.04 220.158 186.184 220.779C185.328 221.401 184.17 221.401 183.313 220.779L181.428 219.41L179.544 220.779C179.115 221.09 178.612 221.245 178.108 221.245V221.245Z" fill="#FF9C33"/>
<path d="M29.9132 125.34C29.4098 125.34 28.906 125.185 28.4783 124.874C27.6228 124.252 27.2645 123.15 27.5916 122.144L28.3118 119.929L26.4276 118.56C25.5722 117.939 25.2138 116.837 25.5409 115.831C25.868 114.825 26.805 114.144 27.8626 114.144H30.192L30.9117 111.928C31.2384 110.922 32.1758 110.241 33.2334 110.241C34.2909 110.241 35.2284 110.922 35.555 111.928L36.2747 114.143H38.6042C39.6617 114.143 40.5992 114.824 40.9258 115.83C41.2525 116.836 40.8946 117.938 40.0387 118.56L38.1545 119.929L38.8747 122.144C39.2013 123.15 38.8434 124.252 37.988 124.874C37.1326 125.495 35.9739 125.495 35.118 124.874L33.2339 123.505L31.3492 124.874C30.92 125.184 30.4166 125.34 29.9132 125.34V125.34Z" fill="#8282FF"/>
<path d="M195.332 36.1144C194.829 36.1144 194.325 35.9591 193.898 35.6481L192.013 34.2789L190.13 35.6481C189.275 36.2697 188.116 36.2697 187.261 35.6481C186.406 35.0265 186.047 33.9244 186.374 32.9186L187.094 30.7032L185.21 29.3341C184.355 28.7125 183.997 27.6104 184.324 26.6046C184.651 25.5987 185.588 24.9175 186.645 24.9175H188.974L189.693 22.7022C190.02 21.6963 190.957 21.0152 192.014 21.0152C193.071 21.0152 194.008 21.6963 194.335 22.7022L195.054 24.9175H197.383C198.44 24.9175 199.378 25.5987 199.704 26.6046C200.031 27.6104 199.673 28.7125 198.818 29.3341L196.934 30.7032L197.654 32.9186C197.981 33.9244 197.623 35.0265 196.768 35.6481C196.339 35.9591 195.835 36.1144 195.332 36.1144V36.1144Z" fill="#8282FF"/>
<path d="M205.249 88.8365H189.458V52.6232C189.458 49.9279 187.271 47.7403 184.576 47.7403H150.126C149.434 31.5436 136.09 18.6234 119.723 18.6234C108.673 18.6234 98.9997 24.5122 93.6668 33.322C90.512 30.3746 86.2787 28.5675 81.62 28.5675H33.9643C24.2173 28.5675 16.3116 36.47 16.3116 46.2207V65.1392C16.3116 74.8894 24.2173 82.7924 33.9643 82.7924H49.9866V186.23C49.9866 188.93 52.1789 191.113 54.8693 191.113H113.13V200.179H97.385C92.0716 200.179 87.4051 203.711 85.9628 208.825L83.8148 216.439H79.8203C78.2021 216.439 76.8906 217.75 76.8906 219.369V226.26C76.8906 227.878 78.2021 229.19 79.8203 229.19H159.625C161.243 229.19 162.554 227.878 162.554 226.26V219.369C162.554 217.75 161.243 216.439 159.625 216.439H155.63L153.482 208.825C152.039 203.711 147.373 200.179 142.06 200.179H126.314V191.113H184.576C187.271 191.113 189.458 188.93 189.458 186.23V143.062H205.249C214.996 143.062 222.901 135.158 222.901 125.408V106.49C222.901 96.7391 214.996 88.8365 205.249 88.8365Z" fill="url(#paint1_linear_4_45)"/>
<defs>
<linearGradient id="paint0_linear_4_45" x1="23.0291" y1="253.229" x2="253.014" y2="23.2418" gradientUnits="userSpaceOnUse">
<stop stop-color="#FFF2ED" stop-opacity="0"/>
<stop offset="0.2938" stop-color="#7F6CCE"/>
<stop offset="0.7874" stop-color="#B4A1FF"/>
</linearGradient>
<linearGradient id="paint1_linear_4_45" x1="119.606" y1="229.189" x2="119.606" y2="18.6234" gradientUnits="userSpaceOnUse">
<stop stop-color="#FF4D4D" stop-opacity="0.4"/>
<stop offset="0.1463" stop-color="#FF4D4D" stop-opacity="0.342"/>
<stop offset="1" stop-color="#FF4D4D" stop-opacity="0"/>
</linearGradient>
</defs>
</svg>
